<svg width="916" height="670" viewBox="0 0 916 670" fill="none" xmlns="http://www.w3.org/2000/svg">
<g clip-path="url(#clip0_1_4)">
<mask id="mask0_1_4" style="mask-type:luminance" maskUnits="userSpaceOnUse" x="0" y="0" width="916" height="670">
<path d="M915.77 0H0V669.574H915.77V0Z" fill="white"/>
</mask>
<g mask="url(#mask0_1_4)">
<path d="M118.75 388.078C118.75 331.257 164.813 285.194 221.634 285.194C278.456 285.194 324.518 331.257 324.518 388.078C324.518 444.899 278.456 490.962 221.634 490.962C164.813 490.962 118.75 444.899 118.75 388.078Z" fill="white"/>
<path d="M435.67 324.464C435.67 267.643 481.733 221.58 538.554 221.58C595.375 221.58 641.438 267.643 641.438 324.464C641.438 381.286 595.375 427.348 538.554 427.348C481.733 427.348 435.67 381.286 435.67 324.464Z" fill="white"/>
<path d="M552.217 388.078C552.217 331.257 598.28 285.194 655.101 285.194C711.922 285.194 757.985 331.257 757.985 388.078C757.985 444.899 711.922 490.962 655.101 490.962C598.28 490.962 552.217 444.899 552.217 388.078Z" fill="white"/>
<path d="M47.1519 490.962C47.1519 440.931 87.7099 400.373 137.74 400.373H733.6C783.63 400.373 824.188 440.931 824.188 490.962C824.188 540.993 783.63 581.551 733.6 581.551H137.74C87.7099 581.551 47.1519 540.993 47.1519 490.962Z" fill="white"/>
<path d="M267.908 285.194C267.908 206.684 331.553 143.039 410.063 143.039C488.572 143.039 552.217 206.684 552.217 285.194C552.217 363.704 488.572 427.348 410.063 427.348C331.553 427.348 267.908 363.704 267.908 285.194Z" fill="white"/>
<g filter="url(#filter0_f_1_4)">
<path d="M410.073 143.038C331.563 143.038 267.913 206.688 267.913 285.198C267.913 289.046 268.186 292.812 268.486 296.583C254.42 289.364 238.545 285.198 221.647 285.198C164.826 285.198 118.761 331.262 118.761 388.083C118.761 392.88 119.196 397.558 119.831 402.181C78.3839 410.498 47.1659 447.073 47.1659 490.969C47.1659 541 87.7179 581.552 137.749 581.552H733.591C783.622 581.552 824.174 540.999 824.174 490.969C824.174 448.943 795.516 413.713 756.705 403.48C757.463 398.443 758.004 393.332 758.004 388.083C758.004 331.262 711.939 285.198 655.118 285.198C648.028 285.198 641.097 285.933 634.411 287.299C619.495 248.874 582.251 221.587 538.555 221.587C538.065 221.587 537.593 221.656 537.104 221.663C513.762 175.087 465.718 143.038 410.073 143.038ZM324.036 398.169C325.013 398.915 325.98 399.665 326.977 400.385H323.73C323.819 399.644 323.963 398.915 324.036 398.169Z" fill="url(#paint0_linear_1_4)"/>
</g>
<g opacity="0.9" filter="url(#filter1_f_1_4)">
<path d="M190.809 295.449C190.809 208.276 261.476 137.609 348.649 137.609C435.821 137.609 506.489 208.276 506.489 295.449C506.489 382.621 435.821 453.288 348.649 453.288C261.476 453.288 190.809 382.621 190.809 295.449Z" fill="url(#paint1_linear_1_4)"/>
<mask id="mask1_1_4" style="mask-type:luminance" maskUnits="userSpaceOnUse" x="190" y="137" width="317" height="317">
<path d="M506.488 137.609H190.809V453.288H506.488V137.609Z" fill="black"/>
<path d="M190.809 295.449C190.809 208.276 261.476 137.609 348.649 137.609C435.821 137.609 506.489 208.276 506.489 295.449C506.489 382.621 435.821 453.288 348.649 453.288C261.476 453.288 190.809 382.621 190.809 295.449Z" fill="white"/>
</mask>
<g mask="url(#mask1_1_4)">
<path d="M190.809 295.449C190.809 208.276 261.476 137.609 348.649 137.609C435.821 137.609 506.489 208.276 506.489 295.449C506.489 382.621 435.821 453.288 348.649 453.288C261.476 453.288 190.809 382.621 190.809 295.449Z" stroke="#FEFEFE" stroke-opacity="0.5" stroke-width="4" stroke-miterlimit="10" stroke-linejoin="round"/>
</g>
</g>
<path d="M190.809 295.449C190.809 208.276 261.476 137.609 348.649 137.609C435.821 137.609 506.489 208.276 506.489 295.449C506.489 382.621 435.821 453.288 348.649 453.288C261.476 453.288 190.809 382.621 190.809 295.449Z" fill="url(#paint2_linear_1_4)"/>
<mask id="mask2_1_4" style="mask-type:luminance" maskUnits="userSpaceOnUse" x="190" y="137" width="317" height="317">
<path d="M506.488 137.609H190.809V453.288H506.488V137.609Z" fill="black"/>
<path d="M190.809 295.449C190.809 208.276 261.476 137.609 348.649 137.609C435.821 137.609 506.489 208.276 506.489 295.449C506.489 382.621 435.821 453.288 348.649 453.288C261.476 453.288 190.809 382.621 190.809 295.449Z" fill="white"/>
</mask>
<g mask="url(#mask2_1_4)">
<path d="M190.809 295.449C190.809 208.276 261.476 137.609 348.649 137.609C435.821 137.609 506.489 208.276 506.489 295.449C506.489 382.621 435.821 453.288 348.649 453.288C261.476 453.288 190.809 382.621 190.809 295.449Z" stroke="#FEFEFE" stroke-opacity="0.5" stroke-width="4" stroke-miterlimit="10" stroke-linejoin="round"/>
</g>
<path d="M190.607 436.095C190.607 412.982 209.344 394.244 232.458 394.244C255.572 394.244 274.309 412.982 274.309 436.095C274.309 459.209 255.572 477.947 232.458 477.947C209.344 477.947 190.607 459.209 190.607 436.095Z" fill="white"/>
<path d="M235.358 393.201C232.952 393.015 230.504 393.034 228.045 393.264C223.782 393.663 219.623 394.697 215.701 396.42C211.074 398.453 206.829 401.373 203.232 404.92C202.225 405.914 200.872 408.533 199.451 411.795C211.38 396.515 233.124 390.871 250.764 399.576C255.08 401.707 258.977 404.621 262.295 408.107C265.933 411.931 268.834 416.445 270.764 421.357C272.777 426.483 273.726 432.011 273.576 437.514C273.427 442.977 272.148 448.382 269.889 453.357C267.696 458.186 264.576 462.58 260.732 466.233C257.197 469.593 253.058 472.307 248.576 474.233C244.8 475.855 240.788 476.92 236.701 477.357C219.078 479.243 190.607 436.107 190.608 436.107C190.608 436.107 192.037 449.011 194.951 454.889C197.547 460.124 201.215 464.802 205.701 468.545C209.881 472.032 214.73 474.682 219.92 476.326C224.431 477.756 229.191 478.427 233.92 478.295C251.312 477.811 266.813 466.441 272.608 450.045C274.353 445.105 275.158 439.875 275.014 434.639C274.896 430.373 274.138 426.116 272.764 422.076C267.185 405.672 252.196 394.504 235.358 393.201ZM190.608 436.107C190.608 436.107 195.387 421.13 199.451 411.795C198.829 412.592 198.111 413.289 197.545 414.139C193.175 420.696 190.608 436.107 190.608 436.107Z" fill="#FEFEFE" fill-opacity="0.5"/>
<path d="M238.016 461.972C238.016 438.858 256.753 420.121 279.867 420.121C302.981 420.121 321.719 438.858 321.719 461.972C321.719 485.086 302.981 503.824 279.867 503.824C256.753 503.824 238.016 485.086 238.016 461.972Z" fill="white"/>
<path d="M282.764 419.076C280.358 418.89 277.941 418.909 275.482 419.139C271.219 419.538 267.03 420.572 263.108 422.295C258.48 424.328 254.235 427.248 250.639 430.795C249.631 431.789 248.278 434.408 246.858 437.67C258.786 422.39 280.531 416.746 298.17 425.451C302.487 427.582 306.414 430.496 309.732 433.983C313.371 437.806 316.24 442.32 318.17 447.233C320.184 452.358 321.133 457.886 320.982 463.389C320.834 468.852 319.586 474.257 317.326 479.233C315.133 484.061 311.982 488.455 308.139 492.107C304.603 495.468 300.464 498.182 295.982 500.107C292.207 501.73 288.194 502.795 284.108 503.233C266.484 505.118 238.014 461.983 238.014 461.983C238.014 461.983 239.443 474.886 242.358 480.764C244.953 485.999 248.621 490.677 253.108 494.42C257.287 497.907 262.137 500.557 267.326 502.201C271.837 503.631 276.597 504.301 281.326 504.17C298.718 503.686 314.22 492.316 320.014 475.92C321.759 470.98 322.564 465.75 322.42 460.514C322.303 456.248 321.544 451.991 320.17 447.951C314.592 431.547 299.602 420.379 282.764 419.076ZM238.014 461.983C238.014 461.983 242.793 447.005 246.858 437.67C246.235 438.467 245.517 439.164 244.951 440.014C240.581 446.571 238.014 461.983 238.014 461.983Z" fill="#FEFEFE" fill-opacity="0.5"/>
<path d="M122.364 503.824C122.364 483.472 134.175 466.974 148.745 466.974H322.268C336.838 466.974 348.649 483.472 348.649 503.824C348.649 524.175 336.838 540.673 322.268 540.673H148.745C134.175 540.673 122.364 524.175 122.364 503.824Z" fill="white"/>
<path d="M237.545 465.764C221.954 465.706 206.352 465.691 190.764 465.857C180.37 465.969 169.97 466.077 159.576 466.201C156.865 466.234 154.163 466.294 151.451 466.326C147.937 466.368 144.856 466.474 141.545 467.795C139.702 468.53 137.981 470.075 136.358 471.92C138.063 470.659 139.878 469.551 141.92 468.795C145.559 467.448 149.01 467.593 152.826 467.639C155.538 467.671 158.24 467.7 160.951 467.733C171.796 467.862 182.637 467.992 193.482 468.107C207.943 468.262 222.397 468.195 236.858 468.139C253.577 468.074 270.294 468.003 287.014 467.951C296.051 467.923 305.101 467.916 314.139 467.889C315.946 467.883 317.737 467.863 319.545 467.857C322.807 467.848 325.895 467.899 328.982 469.076C340.262 473.378 346.143 486.479 347.545 497.701C347.852 500.157 347.971 502.647 347.92 505.076C347.869 507.505 347.635 509.931 347.232 512.326C345.423 523.086 339.262 535.359 328.232 539.076C325.372 540.04 322.532 540.068 319.545 540.076C316.834 540.084 314.131 540.1 311.42 540.107C302.382 540.133 293.333 540.176 284.295 540.201C253.567 540.287 222.867 540.34 192.139 540.42C181.294 540.448 170.421 540.486 159.576 540.514C156.865 540.521 154.163 540.538 151.451 540.545C148.024 540.554 145.012 540.504 141.764 539.264C130.218 534.854 122.358 503.826 122.358 503.826C122.358 503.826 122.535 508.804 122.889 511.264C124.531 522.683 130.848 535.825 142.545 539.764C145.481 540.752 148.386 540.787 151.451 540.795C154.163 540.802 156.865 540.819 159.576 540.826C168.614 540.85 177.664 540.865 186.701 540.889C217.429 540.969 248.161 541.053 278.889 541.139C289.734 541.169 300.575 541.202 311.42 541.233C314.131 541.24 316.834 541.256 319.545 541.264C323.063 541.274 326.18 541.193 329.514 539.92C341.322 535.412 347.512 521.921 348.982 510.139C349.244 508.046 349.359 505.934 349.389 503.826C349.424 501.309 349.215 498.786 348.858 496.295C347.175 484.585 340.676 471.207 328.701 467.17C325.688 466.154 322.692 466.086 319.545 466.076C317.286 466.069 315.023 466.083 312.764 466.076C303.274 466.047 293.784 466.014 284.295 465.983C268.706 465.931 253.136 465.822 237.545 465.764ZM122.358 503.826C122.358 503.826 127.727 481.732 136.358 471.92C128.47 477.751 124.088 488.258 122.826 497.607C122.548 499.67 122.358 503.826 122.358 503.826Z" fill="#FEFEFE" fill-opacity="0.5"/>
<path d="M122.364 420.121C122.364 388.185 148.254 362.295 180.19 362.295C212.126 362.295 238.016 388.185 238.016 420.121C238.016 452.057 212.126 477.947 180.19 477.947C148.254 477.947 122.364 452.057 122.364 420.121Z" fill="white"/>
<path d="M179.639 361.139C177.813 361.146 175.987 361.215 174.17 361.389C168.331 361.948 162.582 363.392 157.201 365.733C150.839 368.499 144.984 372.458 140.014 377.295C138.88 378.399 137.424 381.132 135.858 384.451C148.853 369.023 169.433 360.848 189.764 364.201C195.877 365.209 201.805 367.242 207.264 370.17C213.155 373.33 218.482 377.545 222.92 382.545C227.388 387.579 230.97 393.369 233.42 399.639C235.964 406.149 237.265 413.12 237.295 420.107C237.327 427.731 235.829 435.353 232.889 442.389C230.048 449.185 225.887 455.409 220.701 460.639C215.947 465.433 210.353 469.378 204.232 472.233C199.097 474.627 193.596 476.264 187.982 477.045C180.916 478.028 173.678 477.707 166.732 476.076C149.722 472.081 122.357 420.108 122.358 420.107C122.358 420.107 124.351 437.963 128.389 446.076C131.704 452.738 136.288 458.765 141.858 463.701C147.463 468.669 154.039 472.53 161.108 475.014C167.232 477.166 173.711 478.27 180.201 478.295C186.701 478.32 193.177 477.276 199.326 475.17C222.748 467.149 238.63 444.837 238.732 420.107C238.76 413.567 237.724 407.048 235.608 400.857C229.416 382.75 214.27 368.5 195.858 363.326C190.585 361.845 185.115 361.117 179.639 361.139ZM122.358 420.107C122.358 420.108 129.986 396.893 135.858 384.451C133.26 387.534 130.837 390.811 128.92 394.451C124.719 402.428 122.358 420.107 122.358 420.107Z" fill="#FEFEFE" fill-opacity="0.5"/>
<g filter="url(#filter2_f_1_4)">
<path d="M512.576 315.456C470.01 315.456 435.479 349.949 435.479 392.515C435.479 394.685 435.647 396.809 435.823 398.933C428.167 394.981 419.588 392.515 410.378 392.515C379.571 392.515 354.599 417.487 354.599 448.294C354.599 450.913 355.014 453.412 355.364 455.935C345.834 457.816 337.411 462.558 330.722 469.077C328.06 467.816 325.247 466.976 322.278 466.976H321.209C321.408 465.317 321.705 463.684 321.705 461.971C321.705 438.857 302.985 420.137 279.871 420.137C276.969 420.137 274.125 420.415 271.39 420.978C265.32 405.351 250.23 394.234 232.459 394.234C232.198 394.234 231.955 394.306 231.695 394.311C222.19 375.392 202.81 362.295 180.195 362.295C148.258 362.295 122.353 388.201 122.353 420.137C122.353 439.629 132.103 456.768 146.88 467.243C133.202 468.61 122.353 484.351 122.353 503.805C122.353 524.157 134.183 540.673 148.752 540.673H322.278C325.051 540.673 327.678 539.91 330.187 538.801C339.079 547.693 351.352 553.204 364.915 553.204H687.974C715.1 553.204 737.067 531.198 737.067 504.073C737.067 481.239 721.426 462.239 700.314 456.737C700.74 453.961 701.193 451.189 701.193 448.294C701.193 417.487 676.221 392.515 645.414 392.515C641.534 392.515 637.763 392.945 634.106 393.699C626.022 372.86 605.919 358.016 582.223 358.016C581.949 358.016 581.695 358.089 581.421 358.092C568.766 332.838 542.747 315.456 512.576 315.456ZM465.661 453.566C466.279 454.042 466.9 454.523 467.533 454.98H465.508C465.565 454.51 465.616 454.039 465.661 453.566Z" fill="url(#paint3_linear_1_4)"/>
</g>
<path opacity="0.560146" d="M512.576 315.456C470.01 315.456 435.479 349.949 435.479 392.515C435.479 394.685 435.647 396.809 435.823 398.933C428.167 394.981 419.588 392.515 410.378 392.515C379.571 392.515 354.599 417.487 354.599 448.294C354.599 450.913 355.014 453.412 355.364 455.935C345.834 457.816 337.411 462.558 330.722 469.077C328.06 467.816 325.247 466.976 322.278 466.976H321.209C321.408 465.317 321.705 463.684 321.705 461.971C321.705 438.857 302.985 420.137 279.871 420.137C276.969 420.137 274.125 420.415 271.39 420.978C265.32 405.351 250.23 394.234 232.459 394.234C232.198 394.234 231.955 394.306 231.695 394.311C222.19 375.392 202.81 362.295 180.195 362.295C148.258 362.295 122.353 388.201 122.353 420.137C122.353 439.629 132.103 456.768 146.88 467.243C133.202 468.61 122.353 484.351 122.353 503.805C122.353 524.157 134.183 540.673 148.752 540.673H322.278C325.051 540.673 327.678 539.91 330.187 538.801C339.079 547.693 351.352 553.204 364.915 553.204H687.974C715.1 553.204 737.067 531.198 737.067 504.073C737.067 481.239 721.426 462.239 700.314 456.737C700.74 453.961 701.193 451.189 701.193 448.294C701.193 417.487 676.221 392.515 645.414 392.515C641.534 392.515 637.763 392.945 634.106 393.699C626.022 372.86 605.919 358.016 582.223 358.016C581.949 358.016 581.695 358.089 581.421 358.092C568.766 332.838 542.747 315.456 512.576 315.456ZM465.661 453.566C466.279 454.042 466.9 454.523 467.533 454.98H465.508C465.565 454.51 465.616 454.039 465.661 453.566Z" fill="url(#paint4_linear_1_4)"/>
</g>
</g>
<defs>
<filter id="filter0_f_1_4" x="16.6611" y="112.533" width="838.018" height="499.524" filterUnits="userSpaceOnUse" color-interpolation-filters="sRGB">
<feFlood flood-opacity="0" result="BackgroundImageFix"/>
<feBlend mode="normal" in="SourceGraphic" in2="BackgroundImageFix" result="shape"/>
<feGaussianBlur stdDeviation="15.2524" result="effect1_foregroundBlur_1_4"/>
</filter>
<filter id="filter1_f_1_4" x="90.8089" y="37.609" width="515.68" height="515.679" filterUnits="userSpaceOnUse" color-interpolation-filters="sRGB">
<feFlood flood-opacity="0" result="BackgroundImageFix"/>
<feBlend mode="normal" in="SourceGraphic" in2="BackgroundImageFix" result="shape"/>
<feGaussianBlur stdDeviation="50" result="effect1_foregroundBlur_1_4"/>
</filter>
<filter id="filter2_f_1_4" x="93.6567" y="286.76" width="672.106" height="295.14" filterUnits="userSpaceOnUse" color-interpolation-filters="sRGB">
<feFlood flood-opacity="0" result="BackgroundImageFix"/>
<feBlend mode="normal" in="SourceGraphic" in2="BackgroundImageFix" result="shape"/>
<feGaussianBlur stdDeviation="14.3481" result="effect1_foregroundBlur_1_4"/>
</filter>
<linearGradient id="paint0_linear_1_4" x1="369.663" y1="323.684" x2="919.543" y2="556.743" gradientUnits="userSpaceOnUse">
<stop stop-color="white"/>
<stop offset="1" stop-color="#A9BBCD"/>
</linearGradient>
<linearGradient id="paint1_linear_1_4" x1="221.525" y1="168.67" x2="506.49" y2="295.453" gradientUnits="userSpaceOnUse">
<stop stop-color="#FCF097"/>
<stop offset="1" stop-color="#DD9F46"/>
</linearGradient>
<linearGradient id="paint2_linear_1_4" x1="221.525" y1="168.67" x2="506.49" y2="295.453" gradientUnits="userSpaceOnUse">
<stop stop-color="#FCF097"/>
<stop offset="1" stop-color="#DD9F46"/>
</linearGradient>
<linearGradient id="paint3_linear_1_4" x1="122.352" y1="434.329" x2="727.08" y2="549.395" gradientUnits="userSpaceOnUse">
<stop stop-color="white"/>
<stop offset="1" stop-color="#A9BBCD"/>
</linearGradient>
<linearGradient id="paint4_linear_1_4" x1="122.352" y1="434.329" x2="727.08" y2="549.395" gradientUnits="userSpaceOnUse">
<stop stop-color="white"/>
<stop offset="1" stop-color="#A9BBCD"/>
</linearGradient>
<clipPath id="clip0_1_4">
<rect width="915.77" height="669.574" fill="white"/>
</clipPath>
</defs>
</svg>
